<?xml version="1.0" encoding="UTF-8"?>
<svg viewBox="0 0 574.76892 948.72662" xmlns="http://www.w3.org/2000/svg">
 <g transform="translate(-22.728 -126.09)">
  <path d="m478.75 150.18c-8.375 0-15.159 6.4878-15.159 14.497 0 3.4255 1.2424 6.5527 3.3189 9.0342-39.761 11.715-100.82 59.499-113.1 69.313-5.9731-0.2749-11.998-0.52571-18.031-0.76303-10.457-12.187-42.501-47.174-75.282-58.997 0.72608-1.6948 1.1169-3.5489 1.1169-5.4938 0-8.0097-6.7836-14.497-15.159-14.497s-15.159 6.4878-15.159 14.497 6.7836 14.497 15.159 14.497c4.2518 0 8.0968-1.6686 10.85-4.3645l52.337 53.473c-58.194-1.5744-109.3-0.16554-103.08 10.133 16.154 26.759 1.8509 155.44 1.8509 155.44 7.8311 4.3241 33.052 7.4486 64.623 9.1563v10.469c-40.587-1.0772-74.172-3.9362-88.59-10.011 0 0-1.5001 18.089-3.6062 43.889l-21.541 3.2047 1.0212-19.137s-30.742-4.5616-68.038 6.3789c5.5408 37.094-27.764 194.11-27.764 194.11l84.569 9.431 9.0313-168.66 21.062-4.5781c-6.0936 74.925-15.392 190.84-16.116 210.29 32.718-3.5576 64.471-6.2145 94.653-8.088l-1.085 14.864c-11.9 1.3775-24.135 4.5503-35.296 10.713 0 0-9.2308 268.49-12.925 294.98 77.166-8.3156 108.95 0 108.95 0v-300.26s-16.278-5.067-37.689-6.1042l-0.31913-15.413c40.546-2.0518 77.72-2.6225 109.62-1.8312l-0.92547 14.772c-19.647 0.73014-35.232 2.93-35.232 2.93 11.11 49.289-2.0743 300.3-2.0743 300.3 48.02 1.7662 34.44-2.3216 101.67-9.9498-1.6387-30.039-5.6123-259.71 1.9467-284.39-11.818-6.234-29.564-8.544-46.944-9.0342l1.4999-13.918c48.886 2.2481 82.343 8.0467 92.068 16.573 0 0-7.1794-129.69 1.6276-212.3l11.776-0.12208c-1.5916 43.944 10.828 98.204 0.60634 182l28.498-1.3734-27.892 21.365 12.989 63.544 14.456-8.2712-5.7762-46.972 17.871-9.7667 19.914 10.896-5.7762 46.972 14.457 8.3017 12.989-63.544-30.86-23.593 31.626-1.4955c-20.967-88.267-10.18-210.2-10.18-210.2s-12.649-11.972-68.038-0.97667c-1.045 3.5918-1.899 7.2356-2.5849 10.926l-10.978-0.54938c2.9442-17.316 6.9439-30.868 12.35-38.151 17.203-2.9603-27.723-0.93193-89.866 0.88511v-13.063c19.13-2.8574 31.402-6.9058 31.402-12.269 19.59-32.45 42.455-155.43 3.67-150.13 0 0-40.563-3.1489-89.42-5.7074l3.2232-0.18312 91.813-68.184c2.6528 2.178 6.0906 3.5099 9.8611 3.5099 8.375 0 15.159-6.4878 15.159-14.497s-6.7836-14.497-15.159-14.497zm-71.708 264.43-0.82974 11.201c-35.132 0.90901-73.598 1.5849-109.05 1.2208l-1.3403-9.9803c37.255 1.1217 79.114 0.4577 111.22-2.4417zm-320.37 233.91-36.093 27.621 12.989 63.544 14.457-8.2712-5.7762-46.972 19.914-10.865 21.956 11.995-5.7762 46.972 14.457 8.3017 12.989-63.545-36.125-27.621-6.0315 7.325-6.957-8.4848zm470.27 16.664-0.28721 0.36625-0.28722-0.33573 0.57443-0.0305zm-184.78 338.54-28.594 62.69 126.63 4.7001-32.679-66.2-65.357-1.1903zm-142.97 6.8367-49.018 51.763 147.05 3.9066-32.679-54.693-65.357-0.9766z" fill="#eeeeec" fill-opacity=".94118" fill-rule="evenodd"/>
  <path d="m179.24 231.85c-13.564-23.494 251.39-1.8086 251.39-1.8086 37.98-5.4257 15.566 120.5-3.6171 153.73 0 23.511-220.04 22.203-245.96 7.2342 0 0 14.01-131.76-1.8086-159.15z" fill="#babdb6" fill-opacity=".94118" fill-rule="evenodd" stroke="#000" stroke-linecap="round" stroke-width="7.5196"/>
  <path d="m157.59 400.87c52.824 23.271 367.52 0.56876 326.69 7.9136-29.35 41.342-16.723 279.85-16.723 279.85-21.703-19.894-164.11-25.239-330.92-6.2726 1.0474-29.42 20.95-281.49 20.95-281.49z" fill="#bec1ba" fill-rule="evenodd" stroke="#000" stroke-linecap="round" stroke-width="6.3916"/>
  <path d="m67.337 435.99c36.522-11.202 66.621-6.5104 66.621-6.5104l-11.003 214.94-82.808-9.6718s32.616-160.78 27.19-198.76z" fill="#babdb6" fill-opacity=".94118" fill-rule="evenodd" stroke="#000" stroke-linecap="round" stroke-width="7.5196"/>
  <path d="m485.46 437.23c54.239-11.258 66.639 0.99494 66.639 0.99494s-10.571 124.84 9.9607 215.22l-80.793 4.0226c12.66-108.51-10.159-168.66 4.1928-220.23z" fill="#babdb6" fill-opacity=".94118" fill-rule="evenodd" stroke="#000" stroke-linecap="round" stroke-width="7.1805"/>
  <path d="m193.71 700.27c39.932-23.055 94.045-5.4257 94.045-5.4257v307.46s-31.142-8.5144-106.71 0c3.6171-27.128 12.66-302.03 12.66-302.03z" fill="#babdb6" fill-opacity=".94118" fill-rule="evenodd" stroke="#000" stroke-linecap="round" stroke-width="7.52"/>
  <path d="m421.91 695.17c-30.069-16.585-99.433-6.085-99.433-6.085 10.879 50.466-2.0384 307.45-2.0384 307.45 47.023 1.8086 33.703-2.3813 99.541-10.192-1.6047-30.757-5.4715-265.9 1.9304-291.17z" fill="#babdb6" fill-opacity=".94118" fill-rule="evenodd" stroke="#000" stroke-linecap="round" stroke-width="7.5196"/>
  <path transform="matrix(.79607 0 0 .78811 459.06 16.031)" d="m-210.11 347.28c0 25.65-18.554 46.467-41.416 46.467s-41.416-20.817-41.416-46.467 26.168-52.876 49.03-52.876 33.803 27.226 33.803 52.876z" fill="#fff" fill-opacity=".94118" fill-rule="evenodd" stroke="#000" stroke-linecap="round" stroke-width="8.4"/>
  <path d="m244.35 385.58 20.204-0.95914 5.1154 40.747h-25.32v-39.788z" fill="#eaeafb" fill-opacity=".78431" fill-rule="evenodd" stroke="#000" stroke-linecap="round" stroke-width="7.5196"/>
  <path d="m376.39 386.84 19.885-2.1737v46.118l-22.762-2.8774 2.8774-41.067z" fill="#eaeafb" fill-opacity=".78431" fill-rule="evenodd" stroke="#000" stroke-linecap="round" stroke-width="7.5196"/>
  <path d="m358.83 654.78 19.885 4.1562-3.6171 35.267-19.145 8.8782 2.8774-48.301z" fill="#eaeafb" fill-opacity=".78431" fill-rule="evenodd" stroke="#000" stroke-linecap="round" stroke-width="7.5196"/>
  <path d="m230.42 658.4 19.885 4.1563 0.90428 43.405-23.666-6.4945 2.8774-41.067z" fill="#eaeafb" fill-opacity=".78431" fill-rule="evenodd" stroke="#000" stroke-linecap="round" stroke-width="7.5196"/>
  <path d="m497.02 449.12 8.3793 21.747-50.09 0.52851-3.4979-24.607 45.209 2.3316z" fill="#eaeafb" fill-opacity=".78431" fill-rule="evenodd" stroke="#000" stroke-linecap="round" stroke-width="7.8863"/>
  <path d="m160.81 444.76 0.34732 20.312-38.802 8.8052-2.2312-22.835 40.686-6.2822z" fill="#eaeafb" fill-opacity=".78431" fill-rule="evenodd" stroke="#000" stroke-linecap="round" stroke-width="7.5196"/>
  <path d="m339.51 282.85c2.3649-20.076 18.954-34.642 37.028-32.512s30.825 20.151 28.46 40.227-25.564 38.949-43.638 36.819-24.215-24.458-21.85-44.534z" fill="#fff" fill-opacity=".94118" fill-rule="evenodd" stroke="#000" stroke-linecap="round" stroke-width="6.6535"/>
  <path d="m360.54 478.64c1.4635-12.524 11.729-21.611 22.914-20.283s19.075 12.571 17.612 25.096-15.82 24.298-27.005 22.97-14.985-15.258-13.521-27.782z" fill="#4e9a06" fill-opacity=".94118" fill-rule="evenodd" stroke="#000" stroke-linecap="round" stroke-width="6.6535"/>
  <path d="m378.54 471.73c0.59813-5.275 4.7938-9.1021 9.3652-8.5427s7.7962 5.2946 7.1981 10.57-6.4656 10.234-11.037 9.6744-6.1244-6.4263-5.5262-11.701z" fill="#fff" fill-opacity=".94118" fill-rule="evenodd"/>
  <path transform="translate(36.388 217.16)" d="m61.619 411.1 17.173 1.0102 9.0914-141.42s-18.183 139.4-26.264 140.41z" fill="#fff" fill-opacity=".75" fill-rule="evenodd"/>
  <path transform="translate(36.388 217.16)" d="m501.04 237.36c0 15.152-2.0203 186.88-10.102 186.88h22.223s-13.132-181.83-12.122-186.88z" fill="#eff0ee" fill-rule="evenodd"/>
  <path d="m375.8 646.44 69.701 19.193 9.0914-88.893s-6.0609 45.457-25.254 59.599-58.589 11.112-53.538 10.102z" fill="#fff" fill-opacity=".75" fill-rule="evenodd"/>
  <path transform="translate(36.388 217.16)" d="m366.69 163.61c4.0406-8.0812 33.335-143.44 32.325-132.33-1.1924 13.117 4.0406 121.22-16.162 127.28s-18.183 7.0711-16.162 5.0508z" fill="#fff" fill-opacity=".75" fill-rule="evenodd"/>
  <path d="m256.6 985.85 17.173 1.0102 7.0711-286.88s-16.162 284.86-24.244 285.87z" fill="#fff" fill-opacity=".75" fill-rule="evenodd"/>
  <path d="m388.93 980.8 26.264 1e-5 -7.0711-283.85s-11.112 282.84-19.193 283.85z" fill="#fff" fill-opacity=".75" fill-rule="evenodd"/>
  <path d="m338.5 348.97 1.2651 27.262-53.747 6.9023v-34.165h52.482z" fill="#fff" fill-opacity=".78431" fill-rule="evenodd" stroke="#000" stroke-linecap="round" stroke-width="7.5196"/>
  <path transform="translate(36.388 217.16)" d="m250.67283,141.89874 49.15434,4.5c.0957,0 .17283.0771.17283.17284v8.15433c0,.0958-.0771.17283-.17283.17283h-47.65434c-.0958,0 .32717,2.42292.32717,2.32717l-.5-10.65433c0-.0958-1.42292-4.67284-1.32717-4.67284z"/>
  <path transform="translate(36.388 217.16)" d="m240 60.899c0 10.493-6.4919 19-14.5 19s-14.5-8.5066-14.5-19 6.4919-19 14.5-19 14.5 8.5066 14.5 19z"/>
  <path transform="translate(146.39 217.16)" d="m240 60.899c0 10.493-6.4919 19-14.5 19s-14.5-8.5066-14.5-19 6.4919-19 14.5-19 14.5 8.5066 14.5 19z"/>
  <path transform="translate(36.388 217.16)" d="m185.26-58.215c42.426 8.4853 87.681 67.882 87.681 67.882l-25.456-1.4142-62.225-66.468z" fill-rule="evenodd" stroke="#000"/>
  <path transform="translate(56.388 283.16)" d="m176.78-126.8c0 8.201-6.6482 14.849-14.849 14.849s-14.849-6.6482-14.849-14.849 6.6482-14.849 14.849-14.849 14.849 6.6482 14.849 14.849z" stroke="#000" stroke-width="4"/>
  <path d="m440.97 150.46c-42.426 8.4853-120.21 74.953-120.21 74.953l25.456-1.4142 94.752-73.539z" fill-rule="evenodd" stroke="#000"/>
  <path transform="matrix(-1 0 0 1 607.7 269.74)" d="m176.78-126.8c0 8.201-6.6482 14.849-14.849 14.849s-14.849-6.6482-14.849-14.849 6.6482-14.849 14.849-14.849 14.849 6.6482 14.849 14.849z" stroke="#000" stroke-width="4"/>
  <path transform="translate(36.387 126.09)" d="m25.456 512.27-35.355 28.284 12.728 65.054 14.142-8.4853-5.6568-48.083 29.698-16.971-15.556-19.799z" fill="#2e3436" stroke="#000" stroke-width="7.52"/>
  <path d="m74.571 639.53 35.355 28.284-12.728 65.054-14.142-8.4853 5.6568-48.083-29.698-16.971 15.556-19.799z" fill="#2e3436" stroke="#000" stroke-width="7.52"/>
  <path d="m517.22 649.67-35.355 28.284 12.728 65.054 14.142-8.4853-5.6569-48.083 29.698-16.971-15.556-19.799z" fill="#2e3436" stroke="#000" stroke-width="7.52"/>
  <path d="m525.95 650.84 35.355 28.284-12.728 65.054-14.142-8.4853 5.6569-48.083-29.698-16.971 15.556-19.799z" fill="#2e3436" stroke="#000" stroke-width="7.52"/>
  <path d="m201.39 1009.1 64 1 32 56-144-4 48-53z" fill="#2e3436" stroke="#000" stroke-linecap="round" stroke-linejoin="round" stroke-width="7.52"/>
  <path d="m341.39 1002.1 64 1.2105 32 67.79-124-4.8421 28-64.158z" fill="#2e3436" stroke="#000" stroke-linecap="round" stroke-linejoin="round" stroke-width="7.52"/>
  <path transform="translate(36.387 126.09)" d="m226.98 894.11 24.749 38.891-26.163-0.70711-12.021-37.477 13.435-0.70711z" fill="#eff0ee"/>
  <path d="m400.55 1008.2 24.749 55.154-23.335-0.7071-8.4853-53.74 7.0711-0.7071z" fill="#eff0ee"/>
  <path transform="translate(36.387 126.09)" d="m165 633.97 26-12" fill="none" stroke="#000" stroke-width="6"/>
  <path d="m209.39 737.05 11 36" fill="none" stroke="#000" stroke-width="6"/>
 </g>
</svg>
