<?xml version='1.0' encoding='utf-8'?>
<svg xmlns="http://www.w3.org/2000/svg" version="1.1" width="720px" height="1358px" viewBox="0 0 720 1358"> <g id="layer1"> <g style="fill:rgb(0,0,0); fill-opacity:1.0; stroke-linejoin: miter"> <path d="M247.31944,648.61646C245.5675,649.02594,243.42871,650.02716,239.85648,652.1431C237.49016,653.5539,237.3536,653.6676,235.44238,656.19305C233.25804,659.10547,231.71086,662.08624,231.14203,664.4981C230.36844,667.8656,230.66423,673.43994,231.9611,680.19745C232.68922,683.8834,233.18979,685.40796,233.8496,685.95404C234.37296,686.3865,234.75978,688.5023,234.48671,689.27606C234.14542,690.16327,233.41733,690.32263,230.52773,690.16327C228.5709,690.0723,227.75183,689.91296,226.95547,689.52637C226.38658,689.25323,224.08858,688.3887,221.83606,687.6151C219.58354,686.8416,216.9214,685.88586,215.92024,685.49915C213.23541,684.49805,211.98402,684.17957,210.57332,684.17957C208.25252,684.17957,206.68256,684.56616,205.40837,685.4537C204.2707,686.2271,202.81453,687.4559,202.26846,688.04755C202.15471,688.1839,201.83614,688.52527,201.58583,688.79834C201.31279,689.07135,200.94879,689.54913,200.76672,689.86774C200.2207,690.7323,196.92148,692.00653,195.32877,691.9837C194.30489,691.961,194.00908,692.0292,193.5768,692.50714L193.05347,693.07587L188.79868,692.9166C185.1354,692.7801,184.06604,692.8254,181.33565,693.23505C179.58368,693.48535,176.10248,693.8268,173.59962,693.96326C171.09679,694.0998,167.86589,694.3729,166.43242,694.5549C159.94785,695.35126,146.70557,698.2636,145.52246,699.151C145.18108,699.37836,144.47575,700.2429,143.90689,701.06213C142.88306,702.541,142.17767,703.76965,135.71584,715.69226C133.8046,719.1962,131.73407,722.76855,131.07428,723.65594C129.45876,725.84015,128.77618,727.02344,125.021935,734.236C123.2472,737.67175,121.222176,741.4714,120.56232,742.6546C119.902504,743.83777,119.24264,745.1575,119.08337,745.56714C118.8331,746.2951,118.85586,746.3406,120.24382,747.7286C121.01738,748.50226,121.973045,749.6854,122.33706,750.3453C122.72391,751.005,123.269966,751.7104,123.56575,751.9151C124.54412,752.5523,124.29385,753.14374,121.44976,756.6933C119.40198,759.2872,118.0595,761.60785,117.39969,763.8149C117.194885,764.4975,116.8991,765.3167,116.7171,765.6352C116.55782,765.9537,116.35304,766.5681,116.26204,767.00037C116.01172,768.11523,113.80467,770.2313,112.371284,770.7318C110.46004,771.36884,110.00497,772.1652,110.98333,773.09814C111.77972,773.84894,112.71255,773.71246,114.87409,772.5749C115.94349,772.006,117.035614,771.55096,117.26316,771.55096C117.94575,771.55096,118.65107,772.62036,118.65107,773.64435C118.65107,774.12213,118.446335,774.9185,118.19605,775.419C117.94575,775.9197,117.741,776.44293,117.741,776.60205C117.71824,777.39856,116.35304,779.03687,115.19264,779.6739C113.827484,780.4019,113.554405,781.03906,114.32802,781.7444C114.87409,782.26764,116.03453,782.4952,116.7171,782.245C118.03678,781.72156,119.08338,780.6294,120.016266,778.78656C121.085686,776.64777,121.495224,776.10156,122.086815,776.10156C123.17893,776.10156,123.22446,777.89905,122.246086,781.65344L122.01854,782.54065L121.04016,782.40424C119.811485,782.22217,119.44746,782.58624,119.629486,783.7466C119.85701,785.0892,120.357605,785.65796,121.33596,785.65796C121.791046,785.65796,122.45086,785.47595,122.769455,785.2484C126.00031,783.08673,125.77281,783.15515,126.88769,783.83765C127.29724,784.0878,127.82057,784.29266,128.04808,784.29266C128.66245,784.29266,130.2779,783.0641,130.91501,782.1311L131.46106,781.312L131.2335,777.5123C130.98325,773.2347,131.14252,772.3019,132.28015,770.7091L132.93996,769.79895L135.30632,769.6624C138.51447,769.5032,139.31085,769.23016,139.74315,768.18353C139.94795,767.7285,140.15268,766.4997,140.22096,765.47577L140.33472,763.58734L139.51562,762.609C139.08328,762.063,138.35518,761.3803,137.90016,761.0619C137.44508,760.7661,136.85352,760.08344,136.5805,759.5602L136.05714,758.60455L136.6715,757.3986C137.01279,756.7388,138.05946,754.782,138.99231,753.0528C139.92513,751.32336,141.31311,748.5704,142.10939,746.9094C142.88306,745.2485,143.99794,743.2007,144.56674,742.3361C145.59065,740.8115,145.61339,740.69775,145.56789,739.1506L145.5224,737.5579L147.04684,735.94257C148.45752,734.4636,150.36879,732.12006,154.94215,726.2725C155.9433,724.99835,157.28574,723.5195,157.92284,722.97345C158.55988,722.42725,159.21976,721.6537,159.37901,721.2896C159.76582,720.3113,160.74416,720.0838,163.15598,720.4022C164.56668,720.60706,166.68275,720.60706,171.30156,720.40216C174.73724,720.26556,179.76567,720.1974,182.51878,720.22003C188.36633,720.3111,189.02614,720.47034,189.27644,721.8355C189.45845,722.74567,189.07169,735.5101,188.73036,740.9482C188.43457,745.36224,187.16042,751.3463,186.02275,753.5761C185.79521,754.00836,185.24918,755.07776,184.81683,755.9651C184.36177,756.8298,183.56543,758.62714,183.0421,759.94684C182.45056,761.4258,181.4494,763.2915,180.42549,764.83875C177.44487,769.3212,174.62349,773.4168,172.32541,776.60205C171.09679,778.3086,169.86813,780.15173,169.61786,780.6522C169.34477,781.1755,168.93524,782.7911,168.68497,784.2472C168.45746,785.7035,167.97961,788.2973,167.68388,789.981C166.5917,795.9423,166.50072,797.46674,167.25153,797.171C167.43361,797.10266,168.25269,796.9206,169.0718,796.7614C171.07405,796.39746,171.18784,796.5339,171.23332,799.3098C171.23332,800.4929,171.1878,801.7215,171.09679,802.0401C171.00575,802.44965,171.09679,802.7909,171.39258,803.20056C172.98534,805.20276,173.75891,809.82153,173.12181,813.46216C172.93983,814.4859,172.68953,816.78394,172.57578,818.5588C172.30272,822.1992,172.43924,823.15485,173.46312,825.2026C173.80443,825.9079,174.53253,827.933,175.05582,829.68494C175.60188,831.4596,176.32997,833.3254,176.69408,833.87146C177.05807,834.44025,177.35387,835.0546,177.35387,835.25946C177.35387,835.4643,177.55865,835.82825,177.80894,836.05566C178.05925,836.2832,178.26404,836.60175,178.26404,836.7838C178.26404,836.9431,178.51433,837.4663,178.81007,837.94415C179.26512,838.67236,179.37894,839.17285,179.46992,841.4482C179.65192,844.7247,179.37894,846.4312,178.35506,848.91125C177.89992,849.9806,177.3994,851.5735,177.26288,852.4835C177.10362,853.3937,176.83057,854.281,176.67131,854.48584C176.51202,854.6677,176.30727,855.2138,176.19345,855.69165C175.85219,857.2162,175.1241,859.719,173.4176,865.339C171.6429,871.1182,170.30048,876.51074,168.82152,883.8827C168.29823,886.4312,166.34145,892.8247,165.43132,894.918C165.22652,895.39594,165.06726,896.16943,165.06726,896.6472C165.06726,897.9669,164.65775,898.9454,163.52007,900.265C162.79198,901.1524,162.49619,901.7211,162.4052,902.42645C162.2004,904.0193,159.42453,909.5938,157.74077,911.7554C157.37672,912.2104,156.8762,913.07495,156.60316,913.68933C156.35292,914.2809,155.60199,915.4869,154.94215,916.37415C153.53148,918.26276,153.44049,918.4219,151.68852,922.54016C150.18683,926.04425,149.70901,927.5232,148.7989,931.61865C147.47922,937.4205,147.3427,938.2625,147.31993,939.7869C147.31993,940.8107,147.1834,941.6754,146.88759,942.2897C146.66008,942.81305,146.31876,943.6776,146.13675,944.2465C145.93199,944.81525,144.9991,947.1133,144.02072,949.3659C143.06506,951.6184,141.63168,955.35,140.83531,957.67065C140.03894,959.9916,138.60551,963.92786,137.64986,966.43066C135.53387,971.9596,135.07878,973.30206,134.8285,975.1224C134.601,976.6468,133.16753,980.1507,132.12093,981.7434C131.71132,982.3351,130.80125,983.1542,129.77736,983.8367C127.36551,985.4523,124.33937,988.47833,124.33937,989.29755C124.33937,989.43396,123.56576,990.2758,122.63291,991.18585C121.42699,992.3463,120.92641,992.98346,120.92641,993.393C120.92641,993.82526,121.7455,994.7809,124.49865,997.4658C129.07198,1001.9254,131.98436,1004.5421,132.37122,1004.5421C132.55325,1004.5421,132.87178,1004.3373,133.09929,1004.08685C133.8729,1003.2451,134.41896,1003.4954,136.21648,1005.5205C139.03783,1008.7287,140.47128,1010.57153,143.3609,1014.8037C146.31879,1019.10394,149.48149,1021.3792,155.3973,1023.427C158.24133,1024.4054,161.56332,1024.6329,162.97403,1023.9048C163.49733,1023.6317,164.08893,1023.1085,164.27097,1022.74445C164.61223,1022.0845,164.61223,1022.0164,163.90688,1021.0151C163.49733,1020.4008,162.6327,1019.60455,161.83633,1019.10394C160.33467,1018.1711,158.19588,1016.1915,157.62704,1015.2359C157.42226,1014.89465,156.96724,1014.4395,156.62592,1014.2347C156.21637,1013.9845,155.96606,1013.64325,155.96606,1013.3475C155.96606,1013.07434,155.67029,1012.3234,155.30626,1011.6865C154.69191,1010.54877,154.37334,1008.50104,154.7374,1007.90936C154.91942,1007.63635,154.87386,1004.58746,154.6236,999.76373C154.44159,996.5556,154.37332,996.07776,153.7135,994.4623L152.98543,992.6877L153.14468,989.6161C153.32669,986.1348,153.14468,986.4079,155.48827,986.0212L156.98993,985.77075L156.89894,981.0837C156.80792,975.50916,156.98993,974.55365,158.71918,971.5047C161.49506,966.5673,163.17877,962.53986,166.61452,952.5514C166.75098,952.1645,167.09227,951.00415,167.36533,949.9347C167.6384,948.8654,168.22993,947.13617,168.66226,946.0666C169.73161,943.4272,174.5553,934.0531,176.55754,930.70844C178.51434,927.47754,179.4927,925.5664,180.24356,923.5414C181.03993,921.4253,182.72362,918.3309,183.61095,917.39795C185.22643,915.69165,186.72815,913.34784,188.27538,910.16254C189.18547,908.34235,190.82372,905.47534,191.93857,903.8144C193.05353,902.15356,193.96365,900.6973,193.96365,900.58344C193.96365,900.447,194.21394,900.174,194.50974,899.9919C194.94205,899.6962,195.16959,899.6734,195.53362,899.8781C196.03416,900.1284,196.03416,900.01465,196.07967,904.9976C196.10243,905.9987,196.03416,909.0247,195.92041,911.7097C195.64737,919.059,196.2617,924.8837,197.94536,930.6174C198.94656,934.0304,199.19681,934.5991,200.01585,935.53174C201.42659,937.07904,202.8145,936.60126,203.77019,934.2351C204.2252,933.12024,204.29347,932.41504,204.43001,927.86426C204.56654,923.56396,204.6803,922.47174,205.08989,921.03845C206.29575,916.92004,207.45613,914.3035,208.6393,912.9839C209.07161,912.4833,209.50392,911.8689,209.57219,911.6186C209.66321,911.3456,210.3003,910.38995,211.00565,909.45715C213.30373,906.4082,213.98625,905.4753,214.66887,904.4287C215.0329,903.8599,215.64723,903.1545,216.01129,902.8815C216.8304,902.2898,216.85315,902.0396,216.32985,900.5834L215.96579,899.49133L216.8304,898.05786C217.331,897.23865,218.1956,896.1011,218.78717,895.4866C219.85652,894.39465,219.85652,894.3718,220.9487,894.5538C221.56305,894.62213,222.33664,894.89514,222.6779,895.1227C223.45154,895.6914,223.56529,895.66876,224.24788,894.94073C224.54366,894.57654,225.61308,893.64374,226.6142,892.8245C227.59256,892.0055,229.07152,890.73126,229.91336,889.98047C232.05219,888.0465,235.26038,885.1569,236.60281,883.9282C238.85533,881.926,239.90201,881.198,241.76776,880.3788C242.81435,879.92365,243.92932,879.4004,244.20232,879.2184C244.4981,879.0137,246.31836,878.12616,248.25238,877.2161C250.16364,876.30597,252.55272,875.0773,253.55385,874.5085C254.55496,873.9397,255.4878,873.4845,255.62431,873.4845C255.7381,873.4845,256.23865,873.14325,256.6937,872.7338C257.17154,872.30133,258.19534,871.5733,258.99176,871.0955C259.78812,870.6178,260.4935,870.09454,260.58444,869.95795C260.67548,869.8214,261.35803,869.2753,262.10892,868.77484C262.88254,868.2514,263.6334,867.6827,263.7927,867.5006C263.95193,867.2958,264.61172,866.7953,265.2488,866.3856C266.38644,865.6803,267.47873,864.8159,271.7335,861.24365C273.8267,859.49176,277.19418,856.87494,277.35355,856.87494C277.4672,856.87494,280.5389,854.69073,282.56393,853.1663C283.45126,852.50635,285.97678,850.13995,288.2294,847.8876C292.16562,843.92847,292.32492,843.72363,293.4398,841.42535C294.57742,839.1274,294.62296,839.0136,294.62296,836.9887C294.62296,835.12305,294.55466,834.7589,293.91763,833.4391C293.53085,832.6201,292.98477,831.2322,292.7117,830.3676C292.4387,829.48016,291.8926,828.27435,291.5286,827.65985C290.57297,826.0673,288.8665,824.1333,288.04733,823.72375C287.68338,823.5189,286.9097,822.97296,286.3409,822.5178C285.77206,822.04,284.7482,821.3802,284.06558,821.0389C283.38303,820.69775,282.10886,819.96954,281.267,819.4234C280.42514,818.87756,279.60605,818.4224,279.44675,818.4224C279.2875,818.4224,278.90067,818.2403,278.6049,818.0357C278.10434,817.6715,276.42062,816.7842,271.3239,814.1902C270.50476,813.758,269.66296,813.4166,269.45813,813.4166C269.25336,813.4166,268.1385,812.9616,266.9781,812.3928C265.8177,811.82404,264.72546,811.3689,264.56628,811.3689C264.38422,811.3689,263.81537,811.1186,263.2921,810.8227C262.76874,810.52704,260.539,809.63983,258.35468,808.86584C252.18858,806.65894,248.27513,805.0663,247.84277,804.54285C247.63803,804.29254,247.41049,803.54175,247.34221,802.8819C247.20569,801.6305,247.36494,789.4579,247.52428,787.7057C247.5925,787.13696,247.63803,786.38605,247.63803,786.04486C247.6608,785.6354,247.91104,785.15753,248.32059,784.7705C248.98042,784.15625,248.98042,784.13354,249.09418,780.857C249.23071,776.69336,249.82228,772.1882,250.66418,768.70703C251.02821,767.20514,251.41498,765.4304,251.55156,764.77057C251.66525,764.11084,251.91553,763.1552,252.07486,762.609C252.25682,762.0857,252.57544,760.7888,252.78018,759.7193C253.59929,755.6465,253.80406,755.2599,256.4434,752.41565C257.76306,750.9822,258.99173,749.5487,259.17368,749.1848C259.35577,748.8435,259.60605,748.57056,259.71982,748.57056C259.8563,748.57056,260.97125,747.20526,262.22263,745.5217C264.74826,742.1315,265.47635,741.4032,266.72775,741.0848C268.22946,740.67523,272.48428,740.4022,277.12598,740.4022C279.62872,740.4022,283.58783,740.28845,285.9085,740.12915C289.1623,739.92444,291.4148,739.9244,295.5786,740.1291C302.31354,740.4475,303.88348,740.2884,308.63885,738.855C312.2793,737.7627,314.07672,737.1256,316.26105,736.1701C318.21783,735.3054,319.35547,734.82776,320.67526,734.327C322.35898,733.69,327.79684,730.98236,328.72977,730.3225C329.07108,730.0722,329.98117,729.64,330.73203,729.3213C332.30197,728.72986,333.3486,728.0018,334.69107,726.6138C335.5557,725.7263,335.8287,725.6127,340.3793,724.2475C347.40994,722.15405,348.63864,721.7446,348.77512,721.3578C349.02542,720.7435,348.9117,719.76495,348.57034,719.30994C347.9788,718.51355,348.16086,718.1724,349.59427,717.55804C351.11868,716.921,351.18698,716.7162,350.70914,714.69104C350.41336,713.37146,350.64084,713.144,352.66592,712.87085C354.57718,712.5979,358.6727,710.68665,360.40195,709.23047C361.0162,708.72986,361.60788,708.29755,361.69882,708.29755C361.78983,708.29755,362.44968,707.77423,363.1323,707.1599C363.97415,706.40906,364.58847,706.0221,364.99808,706.0221C365.40762,706.0221,365.8854,705.72644,366.47696,705.11206C367.79654,703.7013,367.7283,703.2235,365.6122,699.5147C364.99802,698.42267,361.494,695.10065,360.97067,695.10065C360.85696,695.10065,360.24258,695.41925,359.60544,695.80597L358.46786,696.5113L357.03445,695.7606C354.9639,694.6911,354.66812,694.8958,352.89334,698.4454C352.14255,699.9697,351.27792,701.4715,350.98215,701.79016C350.36777,702.4271,348.32004,703.29175,347.38712,703.29175C347.04587,703.29175,346.15848,703.04144,345.40768,702.74567C343.10965,701.85834,342.88205,701.8355,342.08572,702.54083C341.53958,703.0187,341.24387,703.61035,340.87985,704.9984L340.3793,706.81866L336.85257,708.2293C334.9186,709.0029,332.91635,709.8448,332.4158,710.0951C331.91513,710.3681,330.80032,710.82324,329.91293,711.14166C329.04837,711.483,328.11545,711.86993,327.84244,712.0518C326.75027,712.75714,320.97104,714.4181,317.9676,714.89594C315.1007,715.32825,312.7116,715.82886,310.57288,716.39764C303.86072,718.1725,301.33508,718.44543,296.46594,717.8083C294.44098,717.5581,285.59003,717.4671,279.7426,717.67206C278.71863,717.6948,277.71747,717.60364,277.2397,717.42175C273.4399,715.96564,273.69022,716.193,272.21127,712.3706C271.0964,709.41254,270.20895,707.9564,268.275,705.8632C266.52295,703.9746,265.88586,703.5877,264.38422,703.3602C263.24652,703.2238,262.85974,702.79144,263.15552,701.99506C263.42853,701.2443,262.8142,701.47174,273.21234,698.1953C277.42172,696.8527,278.44553,696.284,279.19644,694.85065C279.65146,693.9632,279.606,693.32623,278.92337,691.4377L278.33188,689.7766L278.80966,688.7983C279.26474,687.8881,279.26474,687.63794,279.05997,685.72656C278.92337,684.5889,278.8779,683.4514,278.96896,683.17816C279.05997,682.928,279.56052,682.29095,280.10654,681.76764C281.267,680.69824,281.40347,679.97015,280.5389,679.21924C280.22037,678.9462,279.97006,678.5823,279.97006,678.40027C279.97006,678.14984,278.7869,677.08044,276.60263,675.374C275.9883,674.87354,275.19193,672.68915,275.19193,671.4151C275.19193,670.8689,275.39676,670.0953,275.69254,669.5719L276.2158,668.66174L275.0781,667.66077C274.44107,667.11475,273.73572,666.4548,273.4854,666.2045C269.3899,662.17725,269.48083,662.4958,271.9154,660.06104C273.94046,658.03613,274.28183,657.44464,274.44107,655.73804L274.55484,654.4639L273.23517,653.7584C269.07135,651.5515,265.45355,650.70953,262.8142,651.3468C261.01678,651.7563,260.10657,651.506,258.5822,650.1636C257.8996,649.54926,257.1715,649.117,256.71643,649.04877C253.25804,648.5709,248.50261,648.3434,247.31944,648.61646 Z M247.02374,844.7705C247.27402,845.0207,247.1147,845.24817,246.15909,846.13556C241.74503,850.1628,240.42535,851.52795,238.62782,853.84875C234.66881,859.01373,233.21259,860.6064,231.75641,861.28906C230.9828,861.6303,230.32295,862.1308,230.14093,862.47217C229.9589,862.7905,229.1625,863.678,228.34341,864.4516C227.52432,865.248,226.63696,866.1353,226.36392,866.4312C226.0909,866.7497,225.31728,867.47784,224.61194,868.0466C223.40602,869.0476,223.20126,869.1388,221.33548,869.389C219.97034,869.5938,218.78717,869.93506,217.62677,870.4584C212.23428,872.9612,212.05226,873.0976,210.18651,875.50946C207.6154,878.8086,207.27414,879.1726,206.68254,879.1726C206.34125,879.1726,205.95445,879.0134,205.79512,878.83136C205.4994,878.49023,205.90894,877.55725,209.89069,869.2751C210.61877,867.7734,211.55167,865.7257,212.00674,864.72455C212.43906,863.72345,213.41742,861.5164,214.16833,859.8328C214.91917,858.14905,216.05681,855.487,216.71667,853.9171C218.90096,848.7293,220.49367,845.56665,221.13077,845.1571C222.01808,844.5654,224.04312,844.47437,235.8747,844.47437C244.49806,844.47437,246.79617,844.5426,247.02374,844.7705 Z"/> </g> <g style="fill:rgb(0,0,0); fill-opacity:1.0; stroke-linejoin: miter"> <path d="M430.3674,781.676L430.36746,818.1947L393.62134,818.1947L356.87524,818.19464L356.8753,855.0547L356.8753,891.9145L319.96988,891.9601L283.04175,892.02844L282.9735,929.5027L282.92798,966.9996L246.56862,967.045L210.232,967.11316L210.11821,1004.3143L210.00449,1041.5156L173.53139,1041.584L137.08109,1041.6294L137.08107,1060.5143L137.08107,1079.3993L191.68834,1079.3993L246.29565,1079.3994L246.34114,1041.9026L246.4093,1004.4283L283.08716,1004.36005L319.78778,1004.31433L319.8333,967.3863L319.90158,930.4808L356.6022,930.41266L393.28015,930.36707L393.28015,893.16595L393.2801,855.9647L430.0262,855.96466L466.7723,855.9646L466.77225,819.2184L466.77225,782.4724L503.01776,782.4267L539.24066,782.35846L539.30884,763.7465L539.3544,745.15735L484.86096,745.15735L430.3674,745.15735L430.3674,781.676 Z"/> </g> <g style="fill:rgb(0,0,0); fill-opacity:1.0; stroke-linejoin: miter"> <path d="M505.6223,506.96393C497.59045,507.71478,493.15363,508.5794,486.89636,510.5816C473.56323,514.88196,462.14117,522.3222,451.8568,533.40295C446.19135,539.5233,440.77625,548.1469,437.72742,555.9738C435.56573,561.48,433.72278,568.8975,433.01746,574.9499C432.58514,578.4766,432.65338,586.7587,433.10846,590.33093C434.56458,601.4117,438.04578,611.62775,443.52924,620.84265C445.21295,623.7096,447.10153,626.3946,450.67377,631.1272C455.49744,637.52075,460.77612,645.16583,464.8944,651.7414C468.28455,657.15656,471.87958,666.1895,473.859,674.26685C475.45178,680.8652,476.0205,685.3246,476.2025,692.62836L476.33905,698.3848L511.3333,698.3849L546.35016,698.38477L546.35016,693.5386C546.35016,682.6626,547.9428,673.7662,551.811,663.09515C553.1534,659.34094,555.8382,653.65265,557.31714,651.3547C558.8189,649.05664,563.8473,642.0031,570.2181,633.3115C578.5001,622.0032,580.1839,619.2956,583.18726,612.6061C586.50916,605.1658,588.5797,597.43,589.60364,588.6016C589.9449,585.66656,589.9449,578.7951,589.60364,575.86C587.9199,561.8215,583.4603,550.21735,575.6105,539.6145C569.74023,531.65094,560.73004,523.4143,552.40247,518.3859C541.68585,511.87863,530.1728,508.1016,517.79517,507.0549C515.3151,506.8274,507.5335,506.78186,505.6223,506.96393 Z M521.4356,515.8831C537.74963,518.5225,550.2864,525.27997,563.11914,538.363C573.35803,548.80664,579.5922,562.2308,580.9574,576.74725C581.5263,582.86786,580.9574,591.3548,579.5922,597.1341C577.88586,604.3239,574.5639,611.9008,570.53656,617.771C568.2385,621.11566,563.46045,627.44116,563.14197,627.57764C563.0509,627.6232,562.9599,627.85077,562.9599,628.07825C562.9599,628.2831,561.98157,629.7848,560.77563,631.40027C555.6789,638.22614,548.6027,649.42065,546.1226,654.58563C541.20807,664.8472,538.6823,674.3805,537.886,685.8024L537.6129,689.7386L533.28986,689.69324L528.9441,689.6249L528.87604,659.31824L528.83044,628.98865L537.59033,611.4686L546.3503,593.94867L541.7314,593.94867L537.1125,593.94867L532.7439,602.8679C530.35486,607.78265,526.5551,615.63226,524.3026,620.2968L520.1843,628.7838L520.1843,659.27264L520.18414,689.7386L511.42438,689.7387L502.66437,689.7389L502.6645,659.27277L502.6645,628.80646L501.8908,627.14557C501.48126,626.2126,498.36407,619.7734,494.99664,612.8338C491.6065,605.8943,488.17065,598.7951,487.35156,597.0659L485.84985,593.9487L481.29926,593.9487C478.77362,593.9487,476.72583,594.0171,476.72583,594.08514C476.72583,594.1763,480.6167,602.00336,485.372,611.4911L494.01825,628.761L494.01825,659.25006L494.01813,689.7389L489.62683,689.7389L485.21277,689.73865L485.05347,686.5988C484.4619,674.6081,481.52686,663.664,476.06616,653.2204C470.9922,643.55035,470.4234,642.54926,467.62476,638.77203C466.66907,637.4524,463.7567,633.49335,461.1629,629.94403C458.5691,626.41724,455.72485,622.5719,454.81476,621.41144C450.08203,615.3592,445.96387,607.2821,443.96167,600.1829C442.30066,594.24445,441.59534,588.8976,441.59534,582.45844C441.6181,572.21954,443.62042,563.75555,448.28467,554.2446C451.24255,548.1924,455.01947,543.00464,460.4347,537.63495C468.057,530.0583,473.3357,526.1219,481.00348,522.2995C487.80652,518.9091,495.5882,516.58844,503.62006,515.5646C507.51074,515.08673,517.5222,515.246,521.4356,515.8831 Z"/> </g> <g style="fill:rgb(0,0,0); fill-opacity:1.0; stroke-linejoin: miter"> <path d="M485.46313,707.5545C485.41772,707.7136,485.39484,709.625,485.41772,711.80927L485.4859,715.791L511.60645,715.85925L537.7041,715.9048L537.6586,711.65L537.59033,707.3724L511.5838,707.3042C490.5371,707.2586,485.55414,707.3041,485.46313,707.5545 Z"/> </g> <g style="fill:rgb(0,0,0); fill-opacity:1.0; stroke-linejoin: miter"> <path d="M485.37207,729.1014L485.37207,733.42444L511.5382,733.42456L537.7041,733.42444L537.7041,729.1014L537.7041,724.7785L511.5382,724.7785L485.37207,724.7785L485.37207,729.1014 Z"/> </g> </g> </svg>