<?xml version="1.0" encoding="UTF-8"?>
<svg clip-rule="evenodd" fill-rule="evenodd" image-rendering="optimizeQuality" shape-rendering="geometricPrecision" text-rendering="geometricPrecision" viewBox="0 0 1990 1253" xml:space="preserve" xmlns="http://www.w3.org/2000/svg">
 <defs>
  <style type="text/css">
    .str1 {stroke:black;stroke-width:19.59;stroke-linecap:round;stroke-linejoin:round}
    .str0 {stroke:black;stroke-width:19.69;stroke-linecap:round;stroke-linejoin:round}
    .str2 {stroke:black;stroke-width:78.37}
    .fil2 {fill:none}
    .fil1 {fill:red}
    .fil0 {fill:white}
  </style>
 </defs>
<symbol viewBox="58255 29905 21000 21000">
 <path class="fil0" d="m68755 30410c5506 0 9996 4490 9996 9996s-4490 9996-9996 9996-9996-4490-9996-9996 4490-9996 9996-9996z"/>
 <path class="fil1" d="m68755 29905c5783 0 10500 4717 10500 10500s-4717 10500-10500 10500-10500-4717-10500-10500 4717-10500 10500-10500zm-249 10627c333 0 640 111 887 298-225-186-501-316-808-367-930-153-1813 481-1966 1412-5 29-9 58-12 88-887-343-1447-1276-1288-2249l554-3377 3821 412c77 8 150-79 163-194s-41-216-118-225l-3798-410 42-254 3823 413c77 8 150-79 163-194s-41-216-118-225l-3800-410 60-364 3807 411c77 8 150-79 163-194s-41-216-118-225l-3783-408 57-346 3838 414c77 8 150-79 163-194 12-115-41-216-118-225l-3815-412 63-385c464-2826 6315-2060 5820 955l-1049 6392c-111 677-546 1224-1120 1508 3-215-35-424-107-618 46 142 70 293 70 450 0 687-473 1267-1110 1430v5227c0 321-213 583-473 583h-656c-260 0-473-262-473-583v-5851c-152-232-241-509-241-806 0-813 663-1477 1477-1477z"/>
</symbol>
<symbol viewBox="-35266 86477 21000 21000">
 <path class="fil0" d="m-24757 86981c5503 0 9994 4491 9994 9996s-4491 9996-9994 9996c-5522 0-10012-4491-10012-9996s4491-9996 10012-9996z"/>
 <path class="fil1" d="m-24757 86477c5779 0 10491 4717 10491 10500s-4712 10500-10491 10500c-5798 0-10509-4717-10509-10500s4712-10500 10509-10500zm-258 10627c331 0 644 110 883 296-221-186-497-315-810-366-920-153-1804 482-1969 1412v88c-883-344-1454-1275-1288-2249l552-3377 3828 412c74 7 147-79 147-195 18-114-37-215-110-225l-3791-409 37-254 3828 412c74 7 147-79 166-195 0-114-55-215-129-225l-3791-409 55-364 3810 410c74 9 147-79 166-193 0-116-55-217-129-225l-3773-409 55-346 3828 414c74 7 147-79 166-195 18-116-37-217-110-225l-3828-412 74-385c460-2827 6313-2060 5816 955l-1049 6392c-110 677-552 1224-1123 1507 0-215-37-423-110-617 55 142 74 293 74 449 0 687-460 1266-1104 1430v5227c0 320-221 583-479 583h-644c-276 0-479-263-479-583v-5851c-147-232-239-508-239-806 0-814 663-1476 1472-1476z"/>
</symbol>
  <line class="fil2 str0" x1="10" x2="1980" y1="647" y2="647"/>
  <line class="fil2 str1" x1="798" x2="798" y1="607" y2="688"/>
  <line class="fil2 str1" x1="1192" x2="1192" y1="607" y2="688"/>
  <line class="fil2 str1" x1="1586" x2="1586" y1="607" y2="688"/>
  <line class="fil2 str1" x1="444" x2="363" y1="170" y2="170"/>
  <line class="fil2 str1" x1="404" x2="404" y1="1124" y2="170"/>
  <line class="fil2 str1" x1="444" x2="363" y1="1124" y2="1124"/>
  <path class="fil2 str2" d="m10 647h394c536 0 449-660 562-605s217 1172 363 1172 6-567 651-567"/>
  <line class="fil2 str1" x1="10" x2="10" y1="607" y2="688"/>
  <line class="fil2 str1" x1="1980" x2="1980" y1="607" y2="688"/>
</svg>
