<?xml version="1.0" encoding="UTF-8"?>
<svg viewBox="0 0 1487.1899 1052.3622" xmlns="http://www.w3.org/2000/svg">
 <g transform="translate(0 8.3704e-5)">
  <path transform="translate(237.92 12.067)" d="m500.03 307.2c0 48.816-39.573 88.388-88.388 88.388s-88.388-39.573-88.388-88.388 39.573-88.388 88.388-88.388 88.388 39.573 88.388 88.388z" fill="#fff" stroke="#000" stroke-width="5"/>
  <g transform="matrix(.29674 0 0 .29674 621.18 246.21)">
   <path d="m95.872 81.671c22.55 0 40.834-18.284 40.834-40.836s-18.284-40.835-40.834-40.835-40.834 18.284-40.834 40.835 18.281 40.836 40.834 40.836z"/>
   <path d="m95.872 40.835"/>
   <path d="m52.173 90.683c-28.917 0-52.173 23.584-52.173 53v125.38c0 24.375 35.673 24.375 35.673 0v-114.64h8.445v313.91c0 32.59 47.503 31.631 47.503 0v-182.22h8.182v182.22c0 31.631 47.764 32.59 47.764 0v-313.91h8.247v114.64c0 24.563 35.487 24.562 35.423 0v-124.62c0-27.125-21.064-53.694-52.814-53.694l-86.25-0.056z"/>
  </g>
  <path transform="translate(-187.41 -117.81)" d="m500.03 307.2c0 48.816-39.573 88.388-88.388 88.388s-88.388-39.573-88.388-88.388 39.573-88.388 88.388-88.388 88.388 39.573 88.388 88.388z" fill="#fff" stroke="#000" stroke-width="5"/>
  <g transform="matrix(.29674 0 0 .29674 195.86 116.34)">
   <path d="m95.872 81.671c22.55 0 40.834-18.284 40.834-40.836s-18.284-40.835-40.834-40.835-40.834 18.284-40.834 40.835 18.281 40.836 40.834 40.836z"/>
   <path d="m95.872 40.835"/>
   <path d="m52.173 90.683c-28.917 0-52.173 23.584-52.173 53v125.38c0 24.375 35.673 24.375 35.673 0v-114.64h8.445v313.91c0 32.59 47.503 31.631 47.503 0v-182.22h8.182v182.22c0 31.631 47.764 32.59 47.764 0v-313.91h8.247v114.64c0 24.563 35.487 24.562 35.423 0v-124.62c0-27.125-21.064-53.694-52.814-53.694l-86.25-0.056z"/>
  </g>
  <path transform="translate(-127.65 499.81)" d="m500.03 307.2c0 48.816-39.573 88.388-88.388 88.388s-88.388-39.573-88.388-88.388 39.573-88.388 88.388-88.388 88.388 39.573 88.388 88.388z" fill="#fff" stroke="#000" stroke-width="5"/>
  <g transform="matrix(.29674 0 0 .29674 255.62 733.95)">
   <path d="m95.872 81.671c22.55 0 40.834-18.284 40.834-40.836s-18.284-40.835-40.834-40.835-40.834 18.284-40.834 40.835 18.281 40.836 40.834 40.836z"/>
   <path d="m95.872 40.835"/>
   <path d="m52.173 90.683c-28.917 0-52.173 23.584-52.173 53v125.38c0 24.375 35.673 24.375 35.673 0v-114.64h8.445v313.91c0 32.59 47.503 31.631 47.503 0v-182.22h8.182v182.22c0 31.631 47.764 32.59 47.764 0v-313.91h8.247v114.64c0 24.563 35.487 24.562 35.423 0v-124.62c0-27.125-21.064-53.694-52.814-53.694l-86.25-0.056z"/>
  </g>
  <path transform="translate(642.34 111.19)" d="m500.03 307.2c0 48.816-39.573 88.388-88.388 88.388s-88.388-39.573-88.388-88.388 39.573-88.388 88.388-88.388 88.388 39.573 88.388 88.388z" fill="#fff" stroke="#000" stroke-width="5"/>
  <g transform="matrix(.29674 0 0 .29674 1025.6 345.34)">
   <path d="m95.872 81.671c22.55 0 40.834-18.284 40.834-40.836s-18.284-40.835-40.834-40.835-40.834 18.284-40.834 40.835 18.281 40.836 40.834 40.836z"/>
   <path d="m95.872 40.835"/>
   <path d="m52.173 90.683c-28.917 0-52.173 23.584-52.173 53v125.38c0 24.375 35.673 24.375 35.673 0v-114.64h8.445v313.91c0 32.59 47.503 31.631 47.503 0v-182.22h8.182v182.22c0 31.631 47.764 32.59 47.764 0v-313.91h8.247v114.64c0 24.563 35.487 24.562 35.423 0v-124.62c0-27.125-21.064-53.694-52.814-53.694l-86.25-0.056z"/>
  </g>
  <path transform="translate(337.42 400.4)" d="m500.03 307.2c0 48.816-39.573 88.388-88.388 88.388s-88.388-39.573-88.388-88.388 39.573-88.388 88.388-88.388 88.388 39.573 88.388 88.388z" fill="#fff" stroke="#f50" stroke-width="5"/>
  <g transform="matrix(.29674 0 0 .29674 720.69 634.55)">
   <g fill="#f50">
    <path d="m95.872 81.671c22.55 0 40.834-18.284 40.834-40.836s-18.284-40.835-40.834-40.835-40.834 18.284-40.834 40.835 18.281 40.836 40.834 40.836z"/>
    <path d="m95.872 40.835"/>
    <path d="m52.173 90.683c-28.917 0-52.173 23.584-52.173 53v125.38c0 24.375 35.673 24.375 35.673 0v-114.64h8.445v313.91c0 32.59 47.503 31.631 47.503 0v-182.22h8.182v182.22c0 31.631 47.764 32.59 47.764 0v-313.91h8.247v114.64c0 24.563 35.487 24.562 35.423 0v-124.62c0-27.125-21.064-53.694-52.814-53.694l-86.25-0.056z"/>
   </g>
  </g>
  <path transform="translate(757.59 579.89)" d="m500.03 307.2c0 48.816-39.573 88.388-88.388 88.388s-88.388-39.573-88.388-88.388 39.573-88.388 88.388-88.388 88.388 39.573 88.388 88.388z" fill="#fff" stroke="#000" stroke-width="5"/>
  <g transform="matrix(.29674 0 0 .29674 1140.9 814.03)">
   <path d="m95.872 81.671c22.55 0 40.834-18.284 40.834-40.836s-18.284-40.835-40.834-40.835-40.834 18.284-40.834 40.835 18.281 40.836 40.834 40.836z"/>
   <path d="m95.872 40.835"/>
   <path d="m52.173 90.683c-28.917 0-52.173 23.584-52.173 53v125.38c0 24.375 35.673 24.375 35.673 0v-114.64h8.445v313.91c0 32.59 47.503 31.631 47.503 0v-182.22h8.182v182.22c0 31.631 47.764 32.59 47.764 0v-313.91h8.247v114.64c0 24.563 35.487 24.562 35.423 0v-124.62c0-27.125-21.064-53.694-52.814-53.694l-86.25-0.056z"/>
  </g>
  <path transform="translate(839.44 -146.32)" d="m500.03 307.2c0 48.816-39.573 88.388-88.388 88.388s-88.388-39.573-88.388-88.388 39.573-88.388 88.388-88.388 88.388 39.573 88.388 88.388z" fill="#fff" stroke="#000" stroke-width="5"/>
  <g transform="matrix(.29674 0 0 .29674 1222.7 87.824)">
   <path d="m95.872 81.671c22.55 0 40.834-18.284 40.834-40.836s-18.284-40.835-40.834-40.835-40.834 18.284-40.834 40.835 18.281 40.836 40.834 40.836z"/>
   <path d="m95.872 40.835"/>
   <path d="m52.173 90.683c-28.917 0-52.173 23.584-52.173 53v125.38c0 24.375 35.673 24.375 35.673 0v-114.64h8.445v313.91c0 32.59 47.503 31.631 47.503 0v-182.22h8.182v182.22c0 31.631 47.764 32.59 47.764 0v-313.91h8.247v114.64c0 24.563 35.487 24.562 35.423 0v-124.62c0-27.125-21.064-53.694-52.814-53.694l-86.25-0.056z"/>
  </g>
  <path transform="translate(0 -8.3704e-5)" d="m320.06 216.91 236.1 68.689" fill="none" stroke="#000" stroke-linecap="round" stroke-width="5"/>
  <path transform="translate(0 -8.3704e-5)" d="m744.19 348.85 210.88 49.184" fill="none" stroke="#000" stroke-linecap="round" stroke-width="5"/>
  <path transform="translate(0 -8.3704e-5)" d="m1113.4 340.01 78.621-99.898" fill="none" stroke="#000" stroke-linecap="round" stroke-width="5"/>
  <path transform="translate(0 -8.3704e-5)" d="m666.93 416.65 57.083 194.66" fill="none" stroke="#000" stroke-linecap="round" stroke-width="5"/>
  <path d="m988.45 493.09-160.36 155.76" fill="#f50" stroke="#000" stroke-linecap="round" stroke-width="5"/>
  <path transform="translate(0 -8.3704e-5)" d="m381.92 787.07 270.22-60.368" fill="none" stroke="#000" stroke-linecap="round" stroke-width="5"/>
  <path transform="translate(0 -8.3704e-5)" d="m830.37 764.48 242.71 98.561" fill="none" stroke="#000" stroke-linecap="round" stroke-width="5"/>
  <path transform="translate(0 -8.3704e-5)" d="m662.21 661.53-385.88-387.11" fill="none" stroke="#000" stroke-linecap="round" stroke-width="5"/>
  <path transform="translate(0 -8.3704e-5)" d="m572.02 378.95-242.27 339.7" fill="none" stroke="#000" stroke-linecap="round" stroke-width="5"/>
  <path transform="translate(0 -8.3704e-5)" d="m741.07 279.35 411.19-104.54" fill="none" stroke="#000" stroke-linecap="round" stroke-width="5"/>
  <path transform="translate(0 -8.3704e-5)" d="m1241.2 261.57-54.112 527.86" fill="none" stroke="#000" stroke-linecap="round" stroke-width="5"/>
  <path transform="translate(0 -8.3704e-5)" d="m1084.1 511.64 48.926 282.98" fill="none" stroke="#000" stroke-linecap="round" stroke-width="5"/>
 </g>
</svg>
